<svg width="50" height="50" viewBox="0 0 50 50" fill="none" xmlns="http://www.w3.org/2000/svg">
<path d="M45 0H10C8.67392 0 7.40215 0.526784 6.46447 1.46447C5.52678 2.40215 5 3.67392 5 5V32.5H2.5C1.83696 32.5 1.20107 32.7634 0.732233 33.2322C0.263392 33.7011 0 34.337 0 35V41.25C0 43.5706 0.921872 45.7962 2.56282 47.4372C4.20376 49.0781 6.42936 50 8.75 50H41.25C43.5706 50 45.7962 49.0781 47.4372 47.4372C49.0781 45.7962 50 43.5706 50 41.25V5C50 3.67392 49.4732 2.40215 48.5355 1.46447C47.5979 0.526784 46.3261 0 45 0ZM21.25 16.25H33.75C34.413 16.25 35.0489 16.5134 35.5178 16.9822C35.9866 17.4511 36.25 18.087 36.25 18.75C36.25 19.413 35.9866 20.0489 35.5178 20.5178C35.0489 20.9866 34.413 21.25 33.75 21.25H21.25C20.587 21.25 19.9511 20.9866 19.4822 20.5178C19.0134 20.0489 18.75 19.413 18.75 18.75C18.75 18.087 19.0134 17.4511 19.4822 16.9822C19.9511 16.5134 20.587 16.25 21.25 16.25ZM8.75 45C7.75544 45 6.80161 44.6049 6.09835 43.9016C5.39509 43.1984 5 42.2446 5 41.25V37.5H32.5V41.25C32.502 41.872 32.5691 42.492 32.7 43.1C32.7554 43.3036 32.8221 43.5039 32.9 43.7C32.9986 44.0833 33.1239 44.4592 33.275 44.825V45H8.75Z" fill="#5AC6D0"/>
</svg>
