<svg width="50" height="51" viewBox="0 0 50 51" fill="none" xmlns="http://www.w3.org/2000/svg">
<path fill-rule="evenodd" clip-rule="evenodd" d="M21.061 47.0257C21.061 45.2943 22.4647 43.8906 24.1961 43.8906H46.865C48.5963 43.8906 50 45.2943 50 47.0257C50 48.7571 48.5963 50.1607 46.865 50.1607H24.1961C22.4647 50.1607 21.061 48.7571 21.061 47.0257ZM21.061 35.5305C21.061 33.7991 22.4647 32.3955 24.1961 32.3955H46.865C48.5963 32.3955 50 33.7991 50 35.5305C50 37.2619 48.5963 38.6656 46.865 38.6656H24.1961C22.4647 38.6656 21.061 37.2619 21.061 35.5305ZM21.061 24.0353C21.061 22.304 22.4647 20.9003 24.1961 20.9003H46.865C48.5963 20.9003 50 22.304 50 24.0353C50 25.7667 48.5963 27.1704 46.865 27.1704H24.1961C22.4647 27.1704 21.061 25.7667 21.061 24.0353ZM37.6205 14.6302H20.9003C17.4374 14.6302 14.6302 17.4374 14.6302 20.9003V37.6205H6.27009C2.80722 37.6205 0 34.8134 0 31.3505V6.27009C0 2.80722 2.80722 0 6.27009 0H31.3505C34.8134 0 37.6205 2.80722 37.6205 6.27009V14.6302Z" fill="#5AC6D0"/>
</svg>
