<svg width="40" height="50" viewBox="0 0 40 50" fill="none" xmlns="http://www.w3.org/2000/svg">
<path fill-rule="evenodd" clip-rule="evenodd" d="M12.4998 22.5003C11.1192 22.5003 9.99988 23.6196 9.99988 25.0003C9.99988 26.381 11.1192 27.5003 12.4998 27.5003H27.4997C28.8804 27.5003 29.9996 26.381 29.9996 25.0003C29.9996 23.6196 28.8804 22.5003 27.4997 22.5003H12.4998ZM12.4998 30.0002C11.1192 30.0002 9.99988 31.1195 9.99988 32.5002C9.99988 33.8809 11.1192 35.0002 12.4998 35.0002H27.4997C28.8804 35.0002 29.9996 33.8809 29.9996 32.5002C29.9996 31.1195 28.8804 30.0002 27.4997 30.0002H12.4998ZM21.2047 0.000344686C22.9017 -0.00225528 24.4077 -0.00455519 25.7987 0.571612C27.1897 1.14778 28.2531 2.21437 29.4511 3.41618C31.8251 5.79742 34.2028 8.17509 36.584 10.549C37.7858 11.7471 38.8525 12.8105 39.4285 14.2015C40.0047 15.5925 40.0025 17.0986 39.9997 18.7956C39.9902 25.0853 39.9995 31.375 39.9995 37.6649C39.9997 39.8811 39.9997 41.7906 39.7943 43.3196C39.5738 44.9583 39.077 46.5293 37.8028 47.8035C36.5288 49.0775 34.9578 49.5745 33.3191 49.7947C31.7899 50.0002 29.8804 50.0002 27.6642 50H12.3353C10.1191 50.0002 8.2096 50.0002 6.68045 49.7947C5.04169 49.5745 3.47084 49.0775 2.19668 47.8035C0.922545 46.5293 0.425701 44.9583 0.205378 43.3196C-0.000218933 41.7906 -0.000118881 39.8811 6.11782e-06 37.6649L3.11514e-05 12.5006C3.11514e-05 12.4455 6.11782e-06 12.3906 6.11782e-06 12.336C-0.000118881 10.1198 -0.000218933 8.21029 0.205378 6.68113C0.425701 5.04238 0.922544 3.47153 2.1967 2.19739C3.47084 0.923233 5.04169 0.426389 6.68045 0.206067C8.20958 0.000469809 10.1191 0.00056986 12.3353 0.000694859C15.2918 0.000869856 18.2483 0.00489463 21.2047 0.000344686Z" fill="#5AC6D0"/>
</svg>
