<svg width="50" height="50" viewBox="0 0 50 50" fill="none" xmlns="http://www.w3.org/2000/svg">
<path d="M42.0959 0C43.4628 0 44.5721 1.10935 44.5721 2.47623V11.7794L22.2885 34.0655L22.2737 44.5597L32.7877 44.5746L44.5721 32.7902V47.0483C44.5721 48.4152 43.4628 49.5246 42.0959 49.5246H2.47623C1.10935 49.5246 0 48.4152 0 47.0483V2.47623C0 1.10935 1.10935 0 2.47623 0H42.0959ZM46.4986 16.8582L50 20.3595L30.7399 39.6197L27.2336 39.6147L27.2385 36.1183L46.4986 16.8582ZM22.2861 24.7623H9.90491V29.7147H22.2861V24.7623ZM29.7147 14.8574H9.90491V19.8098H29.7147V14.8574Z" fill="#5AC6D0"/>
</svg>
