<svg width="50" height="51" viewBox="0 0 50 51" fill="none" xmlns="http://www.w3.org/2000/svg">
<path d="M7.65102e-05 7.53386C-0.00615742 6.15352 0.368669 4.79823 1.08328 3.61725C1.79789 2.43627 2.82455 1.47541 4.05022 0.840492C5.27588 0.20557 6.653 -0.0787828 8.0299 0.0187469C9.40681 0.116277 10.7301 0.591906 11.854 1.39325C12.9779 2.1946 13.8589 3.29059 14.3999 4.5605C14.9409 5.83042 15.121 7.22501 14.9202 8.59069C14.7195 9.95637 14.1458 11.2402 13.2622 12.3007C12.3786 13.3612 11.2195 14.1573 9.91256 14.6013C9.9556 14.7424 9.9849 14.8872 10.0001 15.0338V27.5338C10.0001 28.1969 9.73667 28.8327 9.26783 29.3016C8.79899 29.7704 8.1631 30.0338 7.50006 30.0338C6.83702 30.0338 6.20114 29.7704 5.7323 29.3016C5.26346 28.8327 5.00007 28.1969 5.00007 27.5338V15.0338C5.01523 14.8872 5.04453 14.7424 5.08757 14.6013C3.60729 14.1028 2.32046 13.153 1.40792 11.8853C0.495388 10.6176 0.00303911 9.09582 7.65102e-05 7.53386ZM44.9125 35.4663C44.9555 35.3253 44.9848 35.1805 45 35.0338V25.0338C45 24.3708 44.7366 23.7349 44.2678 23.2661C43.7989 22.7972 43.163 22.5338 42.5 22.5338C41.837 22.5338 41.2011 22.7972 40.7322 23.2661C40.2634 23.7349 40 24.3708 40 25.0338V35.0338C40.0152 35.1805 40.0445 35.3253 40.0875 35.4663C38.4048 36.038 36.9797 37.1886 36.0664 38.7131C35.153 40.2376 34.8106 42.0369 35.1003 43.7903C35.39 45.5437 36.293 47.1373 37.6482 48.2869C39.0034 49.4366 40.7228 50.0677 42.5 50.0677C44.2772 50.0677 45.9966 49.4366 47.3518 48.2869C48.707 47.1373 49.61 45.5437 49.8997 43.7903C50.1894 42.0369 49.847 40.2376 48.9336 38.7131C48.0203 37.1886 46.5952 36.038 44.9125 35.4663ZM47.5 0.033874H37.5C36.837 0.033874 36.2011 0.297265 35.7322 0.766106C35.2634 1.23495 35 1.87083 35 2.53387V5.03386H25C24.337 5.03386 23.7011 5.29726 23.2323 5.7661C22.7634 6.23494 22.5 6.87082 22.5 7.53386C22.5 8.1969 22.7634 8.83278 23.2323 9.30162C23.7011 9.77046 24.337 10.0339 25 10.0339H35V12.5339C35 13.1969 35.2634 13.8328 35.7322 14.3016C36.2011 14.7705 36.837 15.0338 37.5 15.0338H47.5C48.163 15.0338 48.7989 14.7705 49.2678 14.3016C49.7366 13.8328 50 13.1969 50 12.5339V2.53387C50 1.87083 49.7366 1.23495 49.2678 0.766106C48.7989 0.297265 48.163 0.033874 47.5 0.033874ZM25 40.0338H15V37.5338C15 36.8708 14.7367 36.2349 14.2678 35.766C13.799 35.2972 13.1631 35.0338 12.5001 35.0338H2.50007C1.83703 35.0338 1.20115 35.2972 0.732308 35.766C0.263468 36.2349 7.65102e-05 36.8708 7.65102e-05 37.5338V47.5338C7.65102e-05 48.1968 0.263468 48.8327 0.732308 49.3016C1.20115 49.7704 1.83703 50.0338 2.50007 50.0338H12.5001C13.1631 50.0338 13.799 49.7704 14.2678 49.3016C14.7367 48.8327 15 48.1968 15 47.5338V45.0338H25C25.6631 45.0338 26.299 44.7704 26.7678 44.3016C27.2366 43.8327 27.5 43.1968 27.5 42.5338C27.5 41.8708 27.2366 41.2349 26.7678 40.766C26.299 40.2972 25.6631 40.0338 25 40.0338Z" fill="#5AC6D0"/>
</svg>
