<svg width="50" height="52" viewBox="0 0 50 52" fill="none" xmlns="http://www.w3.org/2000/svg">
<path d="M34.8214 0.267857C34.2857 -0.0892857 33.5714 -0.0892857 33.0357 0.267857L29.4643 2.05357C26.25 3.66071 22.5 4.55357 18.75 4.55357C15.1786 4.55357 12.5 7.41071 12.5 10.9821C12.5 12.9464 13.3929 14.5536 14.6429 15.8036L18.75 24.0179C19.1071 24.5536 19.6429 25.0893 20.3571 25.0893H24.8214C25.8929 25.0893 26.6071 24.375 26.6071 23.3036V18.8393C27.5 19.1964 28.5714 19.5536 29.4643 20.0893L33.0357 21.875C33.2143 22.0536 33.5714 22.0536 33.9286 22.0536C34.2857 22.0536 34.6429 22.0536 34.8214 21.875C35.3571 21.5179 35.7143 20.9821 35.7143 20.2679V1.875C35.7143 1.33929 35.3571 0.625 34.8214 0.267857ZM32.1429 17.4107L31.0714 16.875C29.6429 16.1607 28.2143 15.625 26.6071 15.0893V7.05357C28.2143 6.51786 29.6429 5.98214 31.0714 5.26786L32.1429 4.73214V17.4107Z" fill="#5AC6D0"/>
<path d="M44.6429 16.1608H39.2857V20.2679C39.2857 22.0536 38.3929 23.8393 36.7857 24.9108C35.1786 25.8036 33.2143 25.9822 31.6071 25.0893L30.1786 24.3751C29.6429 26.8751 27.5 28.6608 24.8214 28.6608H20.3571C18.2143 28.6608 16.4286 27.5893 15.5357 25.6251L11.7857 17.9465C11.25 17.4108 10.8929 16.8751 10.5357 16.1608H5.35714C2.32143 16.1608 0 18.4822 0 21.5179V46.5179C0 49.5536 2.32143 51.8751 5.35714 51.8751H44.6429C47.6786 51.8751 50 49.5536 50 46.5179V21.5179C50 18.4822 47.6786 16.1608 44.6429 16.1608ZM40.5357 39.7322C41.25 40.4465 41.4286 41.5179 40.7143 42.2322C40.3571 42.7679 39.8214 42.9465 39.2857 42.9465C38.9286 42.9465 38.3929 42.7679 38.0357 42.5893L31.0714 36.5179L26.0714 40.8036C25.8929 40.9822 25.3571 41.1608 25 41.1608C24.6429 41.1608 24.1071 40.9822 23.75 40.8036L18.75 36.5179L11.7857 42.5893C11.6071 42.7679 11.0714 42.9465 10.7143 42.9465C10.1786 42.9465 9.64286 42.7679 9.28571 42.4108C8.57143 41.6965 8.75 40.6251 9.46429 39.9108L16.0714 34.1965L9.46429 28.4822C8.75 27.7679 8.57143 26.6965 9.28571 25.9822C10 25.2679 11.0714 25.0893 11.7857 25.8036L24.8214 37.2322L37.8571 25.8036C38.5714 25.0893 39.6429 25.2679 40.3571 25.9822C41.0714 26.6965 40.8929 27.7679 40.1786 28.4822L33.75 34.0179L40.5357 39.7322Z" fill="#5AC6D0"/>
</svg>
