<svg width="50" height="40" viewBox="0 0 50 40" fill="none" xmlns="http://www.w3.org/2000/svg">
<path d="M50 2.5V12.5L25 22.5L0 12.5V2.5C0 1.83696 0.263392 1.20107 0.732233 0.732234C1.20107 0.263393 1.83696 0 2.5 0H47.5C48.163 0 48.7989 0.263393 49.2678 0.732234C49.7366 1.20107 50 1.83696 50 2.5ZM0 17.885V37.5C0 38.163 0.263392 38.7989 0.732233 39.2678C1.20107 39.7366 1.83696 40 2.5 40H47.5C48.163 40 48.7989 39.7366 49.2678 39.2678C49.7366 38.7989 50 38.163 50 37.5V17.885L25 27.885L0 17.885Z" fill="#5AC6D0"/>
</svg>
