<svg width="50" height="50" viewBox="0 0 50 50" fill="none" xmlns="http://www.w3.org/2000/svg">
<path d="M45 0H5C2.23858 0 0 2.23858 0 5V45C0 47.7614 2.23858 50 5 50H45C47.7614 50 50 47.7614 50 45V5C50 2.23858 47.7614 0 45 0Z" fill="#5AC6D0"/>
<path d="M37.9 35L27.275 11.475C27.0761 11.0385 26.7559 10.6684 26.3525 10.4089C25.9491 10.1495 25.4796 10.0115 25 10.0115C24.5204 10.0115 24.0508 10.1495 23.6475 10.4089C23.2441 10.6684 22.9239 11.0385 22.725 11.475L12.1 35C11.5084 35.0958 10.971 35.4009 10.5855 35.8598C10.2001 36.3187 9.99228 36.9007 9.99999 37.5C9.99999 38.163 10.2634 38.7989 10.7322 39.2677C11.2011 39.7366 11.837 40 12.5 40H17.5C18.163 40 18.7989 39.7366 19.2678 39.2677C19.7366 38.7989 20 38.163 20 37.5C20 36.8369 19.7366 36.201 19.2678 35.7322C18.7989 35.2633 18.163 35 17.5 35L18.65 32.5H31.15L32.5 35C31.837 35 31.2011 35.2633 30.7322 35.7322C30.2634 36.201 30 36.8369 30 37.5C30 38.163 30.2634 38.7989 30.7322 39.2677C31.2011 39.7366 31.837 40 32.5 40H37.5C38.163 40 38.7989 39.7366 39.2678 39.2677C39.7366 38.7989 40 38.163 40 37.5C40.0077 36.9007 39.7999 36.3187 39.4145 35.8598C39.029 35.4009 38.4916 35.0958 37.9 35ZM21 27.5L25 18.6L29 27.5H21Z" fill="white"/>
</svg>
