<svg width="50" height="48" viewBox="0 0 50 48" fill="none" xmlns="http://www.w3.org/2000/svg">
<path d="M31.1484 0C29.3447 0 27.8736 1.47107 27.8736 3.27474C27.8864 3.38986 27.8992 3.4922 27.9248 3.59454C27.912 3.60733 27.8864 3.60733 27.8736 3.60733C28.0527 4.29809 27.8353 5.02723 27.298 5.48774C27.1061 5.64125 26.8887 5.76917 26.6584 5.84592C25.7246 6.14013 24.7268 5.65404 24.3687 4.7586C24.3687 4.7586 24.3559 4.7586 24.3431 4.77139C24.2919 4.66906 24.2279 4.56672 24.164 4.47718C23.5116 3.58174 22.4499 3.07007 21.337 3.13403C20.7102 3.1724 20.1089 3.38986 19.5973 3.76083C18.139 4.82256 17.8064 6.86927 18.8681 8.32756C18.9449 8.4171 19.0344 8.49385 19.1112 8.57061C19.1112 8.5834 19.0984 8.59619 19.0856 8.60898C19.6228 9.0567 19.8659 9.77305 19.6996 10.4638C19.6484 10.6941 19.5461 10.9243 19.3926 11.1162C18.817 11.9093 17.7296 12.1012 16.911 11.5895C16.911 11.5895 16.911 11.6023 16.8982 11.6023C16.7958 11.5511 16.6935 11.5128 16.5912 11.4744C16.2969 11.372 15.9771 11.3209 15.6701 11.3209C14.2119 11.2697 12.9071 12.1907 12.4594 13.585C11.8965 15.2992 12.8431 17.1412 14.5572 17.7041C14.6724 17.7296 14.7747 17.7424 14.8898 17.7552C14.8898 17.768 14.8898 17.7808 14.877 17.8064C15.5934 17.8448 16.2202 18.2797 16.4888 18.9449C16.5784 19.1623 16.6295 19.4054 16.6295 19.6484C16.6295 20.6334 15.8492 21.4265 14.877 21.4905C14.8898 21.5033 14.8898 21.5161 14.8898 21.5416C14.7747 21.5544 14.6724 21.5672 14.5572 21.5928C12.8431 22.1556 11.8965 23.9977 12.4594 25.7246C13.0222 27.4387 14.8642 28.3853 16.5912 27.8225C16.6935 27.7841 16.7958 27.7457 16.8982 27.6946C16.911 27.7074 16.911 27.7074 16.911 27.7201C17.1924 27.5411 17.4994 27.4387 17.8192 27.4259C18.1901 27.4003 18.5483 27.4899 18.8681 27.6946C19.0728 27.8225 19.2647 27.9888 19.4054 28.1934C19.981 28.9865 19.8147 30.0739 19.0728 30.6879L19.1112 30.7262C19.0344 30.803 18.9449 30.8798 18.8681 30.9693C17.8064 32.4276 18.139 34.4743 19.5973 35.5488C21.0555 36.6105 23.1023 36.278 24.164 34.8197C24.2279 34.7301 24.2919 34.6406 24.3431 34.5383C24.3559 34.5383 24.3559 34.5383 24.3687 34.551C24.6245 33.8859 25.2257 33.4254 25.9421 33.3742C26.1851 33.3486 26.4282 33.387 26.6584 33.4637C27.605 33.7579 28.1295 34.7557 27.8736 35.6895C27.8992 35.6895 27.912 35.6895 27.9248 35.7023C27.8992 35.8047 27.8864 35.9198 27.8736 36.0221C27.8736 37.8258 29.3447 39.2969 31.1484 39.2969C32.952 39.2969 34.4231 37.8258 34.4231 36.0221C34.4231 35.907 34.4103 35.8047 34.3975 35.6895H34.4103C34.1673 34.7429 34.7045 33.7579 35.6384 33.4509C35.8814 33.3742 36.1245 33.3486 36.3675 33.3742C37.0455 33.4254 37.6595 33.8731 37.9153 34.551C37.9409 34.5383 37.9537 34.5255 37.9665 34.5255C38.0177 34.6278 38.0688 34.7173 38.12 34.8197C39.1945 36.278 41.2412 36.6105 42.6995 35.5488C44.1578 34.4743 44.4904 32.4276 43.4159 30.9693C43.3391 30.8798 43.2624 30.803 43.1728 30.7262C43.1856 30.7135 43.1984 30.7135 43.2112 30.7007C42.4693 30.0739 42.3158 28.9738 42.8914 28.1807C43.2624 27.669 43.8636 27.4003 44.452 27.4259C44.7718 27.4387 45.0916 27.5283 45.373 27.7074C45.3858 27.6946 45.3986 27.6818 45.4114 27.669C45.5009 27.7201 45.6033 27.7713 45.7056 27.8225C47.4325 28.3853 49.2746 27.4387 49.8374 25.7246C50.4003 23.9977 49.4537 22.1556 47.7395 21.5928C47.6244 21.5672 47.5221 21.5544 47.407 21.5288C47.407 21.5161 47.407 21.5033 47.4197 21.4905C46.4476 21.4265 45.6672 20.6206 45.6672 19.6356C45.6672 18.6635 46.4476 17.8703 47.4197 17.8064C47.407 17.7936 47.407 17.768 47.407 17.7552C47.5221 17.7424 47.6244 17.7296 47.7395 17.7041C49.4537 17.1412 50.4003 15.2992 49.8374 13.5723C49.3897 12.1907 48.0849 11.2697 46.6266 11.3209C46.3196 11.3209 45.9998 11.372 45.7056 11.4744C45.6033 11.5255 45.5009 11.5767 45.4114 11.6279C45.3986 11.6151 45.3858 11.6023 45.373 11.5767C44.5671 12.1012 43.467 11.9093 42.8914 11.1034C42.3158 10.3231 42.4693 9.22299 43.2112 8.59619C43.1984 8.59619 43.1856 8.5834 43.1728 8.57061C43.2624 8.49385 43.3391 8.4171 43.4159 8.32756C44.4904 6.86927 44.1578 4.82256 42.6995 3.74804C42.1878 3.38986 41.5866 3.1724 40.9598 3.13403C39.8469 3.07007 38.7852 3.58174 38.12 4.47718C38.0688 4.57952 38.0177 4.66906 37.9665 4.77139C37.9537 4.77139 37.9409 4.7586 37.9281 4.7586C37.5699 5.65404 36.5722 6.14013 35.6256 5.83313C34.6918 5.53891 34.1673 4.54114 34.4103 3.60733C34.4103 3.60733 34.4103 3.60733 34.3975 3.60733C34.4103 3.4922 34.4231 3.38986 34.4231 3.27474C34.4231 1.47107 32.952 0 31.1484 0ZM31.1484 11.4616C35.6639 11.4616 39.3352 15.1329 39.3352 19.6484C39.3352 24.164 35.6639 27.8353 31.1484 27.8353C26.6328 27.8353 22.9615 24.164 22.9615 19.6484C22.9615 15.1329 26.6328 11.4616 31.1484 11.4616ZM8.18684 31.11C3.70967 31.11 0 34.8197 0 39.2969C0 43.774 3.70967 47.4837 8.18684 47.4837C12.664 47.4837 16.3737 43.774 16.3737 39.2969C16.3737 34.8197 12.664 31.11 8.18684 31.11ZM8.18684 37.6595C9.13345 37.6595 9.82421 38.3503 9.82421 39.2969C9.82421 40.2435 9.13345 40.9342 8.18684 40.9342C7.24024 40.9342 6.54948 40.2435 6.54948 39.2969C6.54948 38.3503 7.24024 37.6595 8.18684 37.6595Z" fill="#5AC6D0"/>
</svg>
