<svg width="50" height="50" viewBox="0 0 50 50" fill="none" xmlns="http://www.w3.org/2000/svg">
<path d="M49.1093 26.207L38.2812 21.2226V6.94136C38.2763 6.64174 38.1852 6.34987 38.019 6.10054C37.8528 5.85121 37.6184 5.65494 37.3437 5.53511L25.625 0.144493C25.4193 0.0493043 25.1954 0 24.9687 0C24.7421 0 24.5182 0.0493043 24.3125 0.144493L12.5937 5.53511C12.3225 5.66063 12.093 5.8613 11.9324 6.11332C11.7717 6.36534 11.6868 6.65813 11.6875 6.95699V21.2382L0.906254 26.207C0.635036 26.3325 0.405503 26.5332 0.244875 26.7852C0.0842482 27.0372 -0.000734725 27.33 4.78552e-06 27.6288V42.9101C-0.000734725 43.2089 0.0842482 43.5017 0.244875 43.7537C0.405503 44.0058 0.635036 44.2064 0.906254 44.332L12.625 49.7226C12.8307 49.8178 13.0546 49.8671 13.2812 49.8671C13.5079 49.8671 13.7318 49.8178 13.9375 49.7226L25 44.6288L36.0625 49.7226C36.2682 49.8178 36.4921 49.8671 36.7187 49.8671C36.9454 49.8671 37.1693 49.8178 37.375 49.7226L49.0937 44.332C49.3649 44.2064 49.5945 44.0058 49.7551 43.7537C49.9157 43.5017 50.0007 43.2089 50 42.9101V27.6288C50.0021 27.3317 49.9194 27.0401 49.7617 26.7882C49.6039 26.5364 49.3776 26.3347 49.1093 26.207ZM36.7344 31.2695L28.75 27.6288L36.7344 23.957L44.7187 27.6288L36.7344 31.2695ZM35.1719 21.207L25.1094 25.8945V13.8789C25.2977 13.8705 25.483 13.8282 25.6562 13.7539L35.1562 9.39449V21.2382L35.1719 21.207ZM25 3.26949L32.9844 6.94136L25 10.6132L17.0312 6.94136L25 3.26949ZM13.2812 23.9413L21.2656 27.6132L13.2812 31.2695L5.29688 27.6288L13.2812 23.9413ZM23.4375 41.8945L13.2812 46.582V34.5663C13.4993 34.5534 13.7122 34.4948 13.9062 34.3945L23.4062 30.0195L23.4375 41.8945ZM46.875 41.8945L36.7812 46.582V34.5663C36.9779 34.5452 37.1688 34.4868 37.3437 34.3945L46.8437 30.0195L46.875 41.8945Z" fill="#5AC6D0"/>
</svg>
