<svg width="50" height="42" viewBox="0 0 50 42" fill="none" xmlns="http://www.w3.org/2000/svg">
<path d="M19.0477 19.0489C19.0477 15.7615 21.7127 13.0965 25.0001 13.0965C28.2875 13.0965 30.9525 15.7615 30.9525 19.0489C30.9525 22.3363 28.2875 25.0013 25.0001 25.0013C21.7127 25.0013 19.0477 22.3363 19.0477 19.0489Z" fill="#5AC6D0"/>
<path d="M3.57145 19.2513C3.57145 15.9636 6.23643 13.2988 9.52386 13.2988C12.8113 13.2988 15.4763 15.9636 15.4763 19.2513C15.4763 22.5387 12.8113 25.2037 9.52386 25.2037C6.23643 25.2037 3.57145 22.5387 3.57145 19.2513Z" fill="#5AC6D0"/>
<path d="M11.3096 5.95241C11.3096 2.66499 13.9746 0 17.262 0C20.5494 0 23.2144 2.66499 23.2144 5.95241C23.2144 9.23983 20.5494 11.9048 17.262 11.9048C13.9746 11.9048 11.3096 9.23983 11.3096 5.95241Z" fill="#5AC6D0"/>
<path d="M26.7858 5.95241C26.7858 2.66499 29.4509 0 32.7383 0C36.0257 0 38.6907 2.66499 38.6907 5.95241C38.6907 9.23983 36.0257 11.9048 32.7383 11.9048C29.4509 11.9048 26.7858 9.23983 26.7858 5.95241Z" fill="#5AC6D0"/>
<path d="M34.524 19.2513C34.524 15.9636 37.189 13.2988 40.4764 13.2988C43.7638 13.2988 46.4288 15.9636 46.4288 19.2513C46.4288 22.5387 43.7638 25.2037 40.4764 25.2037C37.189 25.2037 34.524 22.5387 34.524 19.2513Z" fill="#5AC6D0"/>
<path d="M15.4763 30.3585C15.4763 29.3723 16.2758 28.5727 17.262 28.5727H32.7383C33.2118 28.5727 33.6661 28.7608 34.0009 29.0958C34.3359 29.4306 34.524 29.8849 34.524 30.3585C34.524 30.3585 34.524 32.5351 34.524 33.9299V33.9401L34.5237 33.9528L34.5233 33.9844C34.5228 34.0087 34.5218 34.0387 34.5204 34.0742C34.5173 34.1451 34.5116 34.2385 34.5011 34.3511C34.4802 34.5754 34.4402 34.8799 34.3623 35.2387C34.2078 35.9509 33.8973 36.9109 33.2661 37.8804C31.9337 39.9271 29.4018 41.668 24.9882 41.668C20.5841 41.668 18.0583 39.9252 16.7299 37.8783C16.1007 36.9087 15.7913 35.9492 15.6374 35.2375C15.5598 34.8792 15.5198 34.5747 15.499 34.3506C15.4886 34.238 15.4829 34.1449 15.4798 34.074C15.4783 34.0385 15.4774 34.0085 15.4769 33.9844L15.4764 33.9525L15.4763 33.9401L15.4763 33.9347V30.3585Z" fill="#5AC6D0"/>
<path d="M13.4963 28.5727C13.2392 29.1139 13.0953 29.7194 13.0953 30.3585L13.0953 33.9492L13.0954 33.9711L13.0962 34.022L13.0964 34.0342C13.0973 34.0754 13.0988 34.1232 13.1011 34.1768C13.1057 34.2842 13.1139 34.4166 13.1282 34.5704C13.1566 34.8766 13.2098 35.2768 13.3102 35.7409C13.5085 36.6575 13.9084 37.9044 14.7326 39.1744C14.7675 39.228 14.8028 39.2814 14.8387 39.3344C13.4829 40.0354 11.7365 40.4776 9.51197 40.4776C5.10786 40.4776 2.58199 38.7347 1.2536 36.6878C0.624432 35.7182 0.315049 34.7587 0.161096 34.047C0.0835718 33.6887 0.0435001 33.3842 0.0227143 33.1601C0.0122857 33.0475 0.00661907 32.9544 0.00354763 32.8835C0.00154762 32.8373 0 32.7442 0 32.7442V30.3585C0 29.3723 0.799504 28.5727 1.78572 28.5727H13.4963Z" fill="#5AC6D0"/>
<path d="M35.1564 39.3371C36.508 40.0364 38.2485 40.4776 40.4642 40.4776C44.8778 40.4776 47.4097 38.7366 48.7421 36.6899C49.3733 35.7204 49.6838 34.7604 49.8383 34.0482C49.9162 33.6894 49.9564 33.3849 49.9774 33.1606C49.9876 33.048 49.9933 32.9547 49.9964 32.8837C49.9981 32.8482 49.9991 32.8182 49.9995 32.7939L50 32.7623V30.3585C50 29.8849 49.8119 29.4306 49.4771 29.0958C49.1421 28.7608 48.6881 28.5727 48.2143 28.5727H36.5028C36.7649 29.1256 36.9047 29.7349 36.9047 30.3585V33.9587L36.9045 33.9904L36.9035 34.0344C36.9028 34.0759 36.9014 34.1235 36.899 34.1773C36.8942 34.2849 36.8861 34.4175 36.8718 34.5716C36.8433 34.878 36.7897 35.2787 36.689 35.7435C36.4897 36.6611 36.0883 37.909 35.2614 39.1795C35.2268 39.2323 35.1918 39.2849 35.1564 39.3371Z" fill="#5AC6D0"/>
</svg>
