<svg width="50" height="39" viewBox="0 0 50 39" fill="none" xmlns="http://www.w3.org/2000/svg">
<path d="M41.6667 33.3333V34.7222C41.6667 37.0234 39.8012 38.8889 37.5 38.8889H4.16667C1.86545 38.8889 0 37.0234 0 34.7222V12.5C0 10.1988 1.86545 8.33333 4.16667 8.33333H5.55556V26.3889C5.55556 30.2181 8.67083 33.3333 12.5 33.3333H41.6667ZM50 26.3889V4.16667C50 1.86545 48.1345 0 45.8333 0H12.5C10.1988 0 8.33333 1.86545 8.33333 4.16667V26.3889C8.33333 28.6901 10.1988 30.5556 12.5 30.5556H45.8333C48.1345 30.5556 50 28.6901 50 26.3889ZM22.2222 8.33333C22.2222 10.6345 20.3568 12.5 18.0556 12.5C15.7543 12.5 13.8889 10.6345 13.8889 8.33333C13.8889 6.03212 15.7543 4.16667 18.0556 4.16667C20.3568 4.16667 22.2222 6.03212 22.2222 8.33333ZM13.8889 20.8333L18.7079 16.0143C19.1147 15.6076 19.7742 15.6076 20.1811 16.0143L23.6111 19.4444L35.3746 7.68099C35.7813 7.27422 36.4409 7.27422 36.8477 7.68099L44.4444 15.2778V25H13.8889V20.8333Z" fill="#5AC6D0"/>
</svg>
