<svg width="50" height="50" viewBox="0 0 50 50" fill="none" xmlns="http://www.w3.org/2000/svg">
<path d="M25 0C20.0555 0 15.222 1.46622 11.1108 4.21326C6.99953 6.96029 3.79521 10.8648 1.90302 15.4329C0.0108321 20.0011 -0.484251 25.0277 0.480379 29.8773C1.44501 34.7268 3.82603 39.1814 7.32234 42.6777C10.8187 46.174 15.2732 48.555 20.1228 49.5196C24.9723 50.4843 29.9989 49.9892 34.5671 48.097C39.1352 46.2048 43.0397 43.0005 45.7867 38.8893C48.5338 34.778 50 29.9445 50 25C50 18.3696 47.3661 12.0107 42.6777 7.32233C37.9893 2.63392 31.6304 0 25 0ZM21.8958 12.5C21.8958 11.6712 22.2251 10.8763 22.8111 10.2903C23.3972 9.70424 24.192 9.375 25.0208 9.375C25.8496 9.375 26.6445 9.70424 27.2305 10.2903C27.8166 10.8763 28.1458 11.6712 28.1458 12.5V26.8542C28.1458 27.2645 28.065 27.6709 27.908 28.05C27.7509 28.4292 27.5207 28.7737 27.2305 29.0639C26.9404 29.3541 26.5959 29.5842 26.2167 29.7413C25.8376 29.8983 25.4312 29.9792 25.0208 29.9792C24.6105 29.9792 24.2041 29.8983 23.825 29.7413C23.4458 29.5842 23.1013 29.3541 22.8111 29.0639C22.5209 28.7737 22.2908 28.4292 22.1337 28.05C21.9767 27.6709 21.8958 27.2645 21.8958 26.8542V12.5ZM25 40.625C24.2913 40.625 23.5985 40.4148 23.0092 40.0211C22.4199 39.6273 21.9607 39.0677 21.6894 38.4129C21.4182 37.7582 21.3473 37.0377 21.4855 36.3426C21.6238 35.6475 21.9651 35.009 22.4662 34.5079C22.9674 34.0067 23.6058 33.6654 24.3009 33.5272C24.996 33.3889 25.7165 33.4599 26.3713 33.7311C27.0261 34.0023 27.5857 34.4616 27.9794 35.0509C28.3732 35.6401 28.5833 36.3329 28.5833 37.0417C28.5833 37.992 28.2058 38.9035 27.5338 39.5755C26.8618 40.2475 25.9504 40.625 25 40.625Z" fill="#5AC6D0"/>
</svg>
