<svg width="50" height="46" viewBox="0 0 50 46" fill="none" xmlns="http://www.w3.org/2000/svg">
<path d="M24.996 0C11.1233 0 0.0750191 10.2176 0.0750191 22.7611C0.0750191 26.7485 1.238 30.4866 3.06553 33.8094C3.39781 34.3078 3.48088 34.9724 3.31474 35.5539L0.0750191 44.4424C-0.25726 45.2731 0.573439 46.0207 1.40414 45.7715L10.4588 42.3656C10.9572 42.1164 11.6217 42.2826 12.2032 42.6148C15.9414 44.6916 20.4271 45.9376 25.2452 45.9376C38.8686 45.7715 50 35.72 50 23.0103C49.9169 10.1345 38.7856 0 24.996 0ZM12.5355 27.0808C10.2095 27.0808 8.382 25.1702 8.382 22.9273C8.382 20.6013 10.2926 18.7738 12.5355 18.7738C14.8615 18.7738 16.689 20.6844 16.689 22.9273C16.689 25.1702 14.7784 27.0808 12.5355 27.0808ZM24.996 27.0808C22.67 27.0808 20.8425 25.1702 20.8425 22.9273C20.8425 20.6013 22.7531 18.7738 24.996 18.7738C27.3219 18.7738 29.1495 20.6844 29.1495 22.9273C29.1495 25.1702 27.3219 27.0808 24.996 27.0808ZM37.5395 27.0808C35.2136 27.0808 33.386 25.1702 33.386 22.9273C33.386 20.6013 35.2966 18.7738 37.5395 18.7738C39.7824 18.7738 41.693 20.6844 41.693 22.9273C41.693 25.1702 39.7824 27.0808 37.5395 27.0808Z" fill="#5AC6D0"/>
</svg>
