<svg width="50" height="50" viewBox="0 0 50 50" fill="none" xmlns="http://www.w3.org/2000/svg">
<path d="M32.35 7.12368C32.718 7.4916 33.1869 7.74215 33.6973 7.84364C34.2077 7.94513 34.7367 7.89302 35.2175 7.69389C35.6983 7.49476 36.1093 7.15755 36.3984 6.72489C36.6876 6.29223 36.842 5.78355 36.8421 5.26316V2.63158C36.8421 1.93364 36.5648 1.26429 36.0713 0.770772C35.5778 0.277255 34.9085 0 34.2105 0C33.5126 0 32.8432 0.277255 32.3497 0.770772C31.8562 1.26429 31.5789 1.93364 31.5789 2.63158V5.26316C31.5791 5.96104 31.8564 6.63028 32.35 7.12368ZM42.1053 10.5263C41.5843 10.5275 41.0747 10.3738 40.6413 10.0849C40.2078 9.7959 39.8699 9.38466 39.6706 8.90335C39.4712 8.42204 39.4194 7.89236 39.5216 7.38152C39.6238 6.87069 39.8755 6.40175 40.2447 6.03421L42.8763 3.40263C43.1191 3.15129 43.4095 2.95081 43.7305 2.81289C44.0516 2.67497 44.3969 2.60238 44.7463 2.59934C45.0957 2.5963 45.4423 2.66289 45.7657 2.79521C46.0891 2.92752 46.3829 3.12293 46.63 3.37001C46.8771 3.6171 47.0725 3.91092 47.2048 4.23433C47.3371 4.55774 47.4037 4.90427 47.4007 5.25369C47.3976 5.60311 47.325 5.94842 47.1871 6.26949C47.0492 6.59055 46.8487 6.88093 46.5974 7.12368L43.9658 9.75526C43.7218 10.0001 43.4318 10.1943 43.1125 10.3266C42.7932 10.459 42.4509 10.5268 42.1053 10.5263ZM47.3684 18.4211H44.7368C44.0389 18.4211 43.3695 18.1438 42.876 17.6503C42.3825 17.1568 42.1053 16.4874 42.1053 15.7895C42.1053 15.0915 42.3825 14.4222 42.876 13.9287C43.3695 13.4352 44.0389 13.1579 44.7368 13.1579H47.3684C48.0664 13.1579 48.7357 13.4352 49.2292 13.9287C49.7227 14.4222 50 15.0915 50 15.7895C50 16.4874 49.7227 17.1568 49.2292 17.6503C48.7357 18.1438 48.0664 18.4211 47.3684 18.4211ZM36.8421 15.7895C36.8421 16.4874 36.5648 17.1568 36.0713 17.6503C35.5778 18.1438 34.9085 18.4211 34.2105 18.4211C33.5126 18.4211 32.8432 18.1438 32.3497 17.6503C31.8562 17.1568 31.5789 16.4874 31.5789 15.7895C31.5789 15.0915 31.8562 14.4222 32.3497 13.9287C32.8432 13.4352 33.5126 13.1579 34.2105 13.1579C34.9085 13.1579 35.5778 13.4352 36.0713 13.9287C36.5648 14.4222 36.8421 15.0915 36.8421 15.7895ZM0 7.89474C0 6.49886 0.55451 5.16016 1.54154 4.17312C2.52858 3.18609 3.86728 2.63158 5.26316 2.63158H26.3158V7.89474H5.26316V30.1684C9.98684 27.7105 17.9895 26.3158 23.6842 26.3158C29.3789 26.3158 37.3816 27.7079 42.1053 30.1684V23.6842H47.3684V44.7368C47.3684 46.1327 46.8139 47.4714 45.8269 48.4585C44.8398 49.4455 43.5011 50 42.1053 50H5.26316C3.86728 50 2.52858 49.4455 1.54154 48.4585C0.55451 47.4714 0 46.1327 0 44.7368V7.89474Z" fill="#5AC6D0"/>
</svg>
