<svg width="50" height="59" viewBox="0 0 50 59" fill="none" xmlns="http://www.w3.org/2000/svg">
<path d="M41.6689 25.0023C38.5673 25.0023 35.899 26.715 34.4668 29.2283C34.0928 29.201 33.7256 29.169 33.3356 29.169C24.8016 29.169 16.7054 22.6692 13.7498 14.621C15.5264 13.093 16.6667 10.8557 16.6667 8.33334C16.6667 3.73335 12.9333 0 8.33333 0C3.73335 0 0 3.73335 0 8.33334C0 11.4076 1.68309 14.0668 4.16667 15.5127V42.8229C1.68309 44.2666 0 46.9258 0 50C0 54.5977 3.73335 58.3334 8.33333 58.3334C12.9333 58.3334 16.6667 54.5977 16.6667 50C16.6667 46.9235 14.9836 44.2666 12.5 42.823V27.8302C17.9803 33.6276 25.5451 37.5 33.3333 37.5C33.7484 37.5 34.0905 37.4728 34.4645 37.4592C35.9059 39.961 38.5742 41.6669 41.6667 41.6669C46.2644 41.6669 50 37.9313 50 33.3336C50 28.7359 46.2666 25.0023 41.6689 25.0023ZM8.33562 54.169C6.03676 54.169 4.16895 52.3057 4.16895 50.0023C4.16895 47.7034 6.03676 45.8356 8.33562 45.8356C10.6413 45.8356 12.5023 47.7034 12.5023 50.0023C12.5023 52.3057 10.6413 54.169 8.33562 54.169ZM8.33562 12.5C6.03676 12.5 4.16895 10.639 4.16895 8.33335C4.16895 6.02765 6.03676 4.16668 8.33562 4.16668C10.6413 4.16668 12.5023 6.02765 12.5023 8.33335C12.5023 10.639 10.6413 12.5 8.33562 12.5ZM41.6689 37.5023C39.3701 37.5023 37.5023 35.639 37.5023 33.3356C37.5023 31.0322 39.3701 29.169 41.6689 29.169C43.9724 29.169 45.8356 31.0299 45.8356 33.3356C45.8356 35.6413 43.9724 37.5023 41.6689 37.5023Z" fill="#5AC6D0"/>
</svg>
