<svg width="50" height="57" viewBox="0 0 50 57" fill="none" xmlns="http://www.w3.org/2000/svg">
<path d="M21.5977 28.7349C29.5807 28.7345 32.453 20.7414 33.2049 14.1757C34.1311 6.08746 30.3063 0 21.5977 0C12.8903 0 9.06351 6.08699 9.9905 14.1757C10.7431 20.7414 13.6146 28.7355 21.5977 28.7349Z" fill="#5AC6D0"/>
<path d="M39.0532 32.0621C39.3101 32.0621 39.5653 32.0698 39.8188 32.0839C39.4389 31.542 38.9991 31.064 38.4846 30.6797C36.9506 29.5349 34.964 29.1592 33.2077 28.4691C32.3528 28.1333 31.5873 27.7997 30.8686 27.4199C28.4431 30.0799 25.2801 31.4714 21.5968 31.4717C17.9147 31.4717 14.752 30.0803 12.3267 27.4199C11.608 27.7998 10.8423 28.1333 9.98759 28.4691C8.23134 29.1593 6.2448 29.5349 4.71078 30.6797C2.05792 32.6598 1.37234 37.1141 0.833668 40.1525C0.389116 42.6607 0.0904642 45.2202 0.00329539 47.7679C-0.0642349 49.7412 0.910091 50.0179 2.56102 50.6137C4.62815 51.3592 6.76253 51.9127 8.91128 52.3664C13.061 53.2427 17.3385 53.9161 21.5975 53.9462C23.6612 53.9315 25.7291 53.765 27.7847 53.4985C26.2627 51.2931 25.37 48.6218 25.37 45.7455C25.3701 38.2003 31.5083 32.0621 39.0532 32.0621Z" fill="#5AC6D0"/>
<path d="M39.0532 34.7987C33.0077 34.7987 28.1066 39.6999 28.1066 45.7454C28.1066 51.7909 33.0077 56.6921 39.0532 56.6921C45.0988 56.6921 50 51.7909 50 45.7454C49.9999 39.6998 45.0987 34.7987 39.0532 34.7987ZM43.8424 47.6234H40.9314V50.5344C40.9314 51.5717 40.0906 52.4126 39.0533 52.4126C38.016 52.4126 37.1751 51.5717 37.1751 50.5344V47.6234H34.2641C33.2268 47.6234 32.3859 46.7826 32.3859 45.7452C32.3859 44.7079 33.2267 43.8669 34.2641 43.8669H37.1751V40.956C37.1751 39.9187 38.016 39.0778 39.0533 39.0778C40.0906 39.0778 40.9314 39.9187 40.9314 40.956V43.8669H43.8424C44.8797 43.8669 45.7207 44.7079 45.7207 45.7452C45.7206 46.7827 44.8798 47.6234 43.8424 47.6234Z" fill="#5AC6D0"/>
</svg>
