<svg width="50" height="50" viewBox="0 0 50 50" fill="none" xmlns="http://www.w3.org/2000/svg">
<path d="M21.4286 42.8571H39.2857C41.2582 42.8571 42.8571 41.2582 42.8571 39.2857V21.4286H21.4286V42.8571ZM14.2857 42.8571V21.4286H7.14286V39.2857C7.14286 41.2582 8.74184 42.8571 10.7143 42.8571H14.2857ZM42.8571 10.7143C42.8571 8.74184 41.2582 7.14286 39.2857 7.14286H10.7143C8.74184 7.14286 7.14286 8.74184 7.14286 10.7143V14.2857H42.8571V10.7143ZM10.7143 0H39.2857C45.203 0 50 4.79695 50 10.7143V39.2857C50 45.203 45.203 50 39.2857 50H10.7143C4.79695 50 0 45.203 0 39.2857V10.7143C0 4.79695 4.79695 0 10.7143 0Z" fill="#5AC6D0"/>
</svg>
