<svg width="50" height="48" viewBox="0 0 50 48" fill="none" xmlns="http://www.w3.org/2000/svg">
<path d="M11.9048 23.8096C5.33333 23.8096 0 29.1191 0 35.7143C0 42.3096 5.33333 47.6191 11.9048 47.6191C18.4762 47.6191 23.8095 42.2858 23.8095 35.7143C23.8095 29.1429 18.5 23.8096 11.9048 23.8096ZM7.04762 30.8572H11.9048C12.8095 30.8572 13.5238 31.5953 13.5238 32.4762C13.5238 33.3572 12.8095 34.0953 11.9048 34.0953H7.04762C6.14286 34.0953 5.42857 33.3572 5.42857 32.4762C5.42857 31.5953 6.14286 30.8572 7.04762 30.8572ZM16.7619 40.5715H7.04762C6.14286 40.5715 5.42857 39.8334 5.42857 38.9524C5.42857 38.0715 6.16667 37.3334 7.04762 37.3334H16.7857C17.6905 37.3334 18.4048 38.0715 18.4048 38.9524C18.4048 39.8334 17.6667 40.5715 16.7619 40.5715Z" fill="#5AC6D0"/>
<path d="M38.0953 0H14.2857C7.14289 0 2.38098 3.57143 2.38098 11.9048V19.381C2.38098 21.1191 4.1667 22.2143 5.76193 21.5238C8.38098 20.381 11.3572 19.9524 14.4762 20.4524C20.7143 21.4762 25.8096 26.4048 27.0715 32.5952C27.4286 34.4048 27.4762 36.1667 27.2381 37.8571C27.0476 39.2619 28.1905 40.5 29.5953 40.5H38.0953C45.2381 40.5 50 36.9286 50 28.5952V11.9048C50 3.57143 45.2381 0 38.0953 0ZM39.2143 13.3095L31.7619 19.2619C30.1905 20.5238 28.1905 21.1429 26.1905 21.1429C24.1905 21.1429 22.1667 20.5238 20.6191 19.2619L13.1667 13.3095C12.4048 12.6905 12.2857 11.5476 12.881 10.7857C13.5 10.0238 14.6191 9.88095 15.381 10.5L22.8334 16.4524C24.6429 17.9048 27.7143 17.9048 29.5238 16.4524L36.9762 10.5C37.7381 9.88095 38.881 10 39.4762 10.7857C40.0953 11.5476 39.9762 12.6905 39.2143 13.3095Z" fill="#5AC6D0"/>
</svg>
