<svg width="50" height="29" viewBox="0 0 50 29" fill="none" xmlns="http://www.w3.org/2000/svg">
<path fill-rule="evenodd" clip-rule="evenodd" d="M20.4597 8.33333H47.619V15.4762H40.4762V26.1905H34.5238V15.4762H20.4597C20.4597 15.4762 17.8571 21.4286 11.9048 21.4286C5.95238 21.4286 2.38095 17.1645 2.38095 11.9048C2.38095 6.6449 5.95238 2.38095 11.9048 2.38095C17.8571 2.38095 20.4597 8.33333 20.4597 8.33333ZM4.7619 11.9048C4.7619 15.8498 7.95988 19.0476 11.9048 19.0476C15.8496 19.0476 19.0476 15.8498 19.0476 11.9048C19.0476 7.95988 15.8496 4.7619 11.9048 4.7619C7.95988 4.7619 4.7619 7.95988 4.7619 11.9048Z" fill="#5AC6D0"/>
<path d="M47.619 8.33333V5.95238C48.934 5.95238 50 7.01838 50 8.33333H47.619ZM20.4597 8.33333V10.7143C19.5136 10.7143 18.6572 10.154 18.2782 9.28717L20.4597 8.33333ZM47.619 15.4762L50 15.4762C50 16.1076 49.749 16.7133 49.3026 17.1598C48.8562 17.6062 48.2505 17.8571 47.619 17.8571V15.4762ZM40.4762 15.4762L38.0952 15.4762C38.0952 14.8448 38.3462 14.239 38.7926 13.7926C39.239 13.3462 39.8448 13.0952 40.4762 13.0952V15.4762ZM40.4762 26.1905H42.8571C42.8571 27.5055 41.7912 28.5714 40.4762 28.5714V26.1905ZM34.5238 26.1905V28.5714C33.2088 28.5714 32.1429 27.5055 32.1429 26.1905H34.5238ZM34.5238 15.4762V13.0952C35.8388 13.0952 36.9048 14.1612 36.9048 15.4762L34.5238 15.4762ZM20.4597 15.4762L18.2782 14.5224C18.6572 13.6555 19.5136 13.0952 20.4597 13.0952V15.4762ZM47.619 10.7143H20.4597V5.95238H47.619V10.7143ZM45.2381 15.4762V8.33333H50V15.4762H45.2381ZM40.4762 13.0952H47.619V17.8571H40.4762V13.0952ZM38.0952 26.1905V15.4762H42.8571V26.1905H38.0952ZM34.5238 23.8095H40.4762V28.5714H34.5238V23.8095ZM36.9048 15.4762V26.1905H32.1429V15.4762H36.9048ZM20.4597 13.0952H34.5238V17.8571H20.4597V13.0952ZM11.9048 19.0476C14.0072 19.0476 15.5602 18.016 16.6772 16.8243C17.2342 16.2298 17.6485 15.6281 17.9219 15.1755C18.0573 14.9512 18.1544 14.7698 18.2141 14.6524C18.2438 14.594 18.264 14.5519 18.2747 14.5293C18.28 14.5179 18.283 14.5114 18.2836 14.5102C18.2839 14.5095 18.2845 14.5083 18.2836 14.5102C18.2831 14.5112 18.2816 14.5145 18.2809 14.5162C18.2805 14.5171 18.2801 14.5181 18.2796 14.519C18.2794 14.5195 18.2797 14.5188 18.2796 14.519C18.2793 14.5198 18.2782 14.5224 20.4597 15.4762C22.6412 16.43 22.641 16.431 22.6405 16.4319C22.6402 16.4321 22.641 16.4312 22.6405 16.4319C22.64 16.4333 22.6383 16.4367 22.6376 16.4383C22.6362 16.4414 22.6348 16.445 22.6329 16.4488C22.6295 16.4567 22.6255 16.4657 22.6205 16.4764C22.611 16.4976 22.5986 16.5245 22.5833 16.5569C22.5531 16.6212 22.5114 16.7071 22.4586 16.8114C22.3526 17.0195 22.1998 17.3031 21.9981 17.6371C21.5976 18.3005 20.9893 19.1869 20.1516 20.0805C18.4792 21.865 15.7547 23.8095 11.9048 23.8095V19.0476ZM4.7619 11.9048C4.7619 13.9967 5.46776 15.7683 6.63709 16.9995C7.78848 18.2117 9.52712 19.0476 11.9048 19.0476V23.8095C8.33002 23.8095 5.30676 22.5136 3.18433 20.2788C1.07986 18.0631 0 15.0726 0 11.9048L4.7619 11.9048ZM11.9048 4.7619C9.52712 4.7619 7.78848 5.59781 6.63709 6.81007C5.46776 8.04126 4.7619 9.81286 4.7619 11.9048L0 11.9048C0 8.73693 1.07986 5.7465 3.18433 3.53074C5.30676 1.29607 8.33002 0 11.9048 0V4.7619ZM20.4597 8.33333C18.2782 9.28717 18.2778 9.28631 18.2782 9.28717C18.2783 9.28743 18.2794 9.28998 18.2796 9.2905C18.2801 9.2915 18.2805 9.29245 18.2809 9.29329C18.2816 9.29498 18.2822 9.29633 18.2827 9.29733C18.283 9.29797 18.2836 9.29935 18.2827 9.29733C18.2821 9.29605 18.28 9.29159 18.2747 9.28026C18.264 9.25752 18.2438 9.21552 18.2141 9.15705C18.1544 9.03971 18.0573 8.85824 17.9219 8.63409C17.6485 8.18138 17.2342 7.57969 16.6772 6.98533C15.5602 5.79359 14.0072 4.7619 11.9048 4.7619V0C15.7547 0 18.4792 1.9445 20.1516 3.72895C20.9893 4.62269 21.5976 5.5091 21.9981 6.17245C22.1998 6.50633 22.3526 6.78991 22.4586 6.9981C22.5114 7.10236 22.5531 7.18826 22.5833 7.25271C22.5986 7.28495 22.611 7.3119 22.6205 7.33314C22.6255 7.34376 22.6295 7.35295 22.6331 7.36071C22.6348 7.36457 22.6362 7.36807 22.6376 7.37121C22.6383 7.37279 22.639 7.37424 22.6395 7.37562C22.6393 7.37529 22.64 7.37631 22.6395 7.37562C22.64 7.37657 22.6412 7.3795 20.4597 8.33333ZM11.9048 21.4286C6.6449 21.4286 2.38095 17.1645 2.38095 11.9048L7.14286 11.9048C7.14286 14.5348 9.27483 16.6667 11.9048 16.6667V21.4286ZM21.4286 11.9048C21.4286 17.1645 17.1646 21.4286 11.9048 21.4286V16.6667C14.5347 16.6667 16.6667 14.5348 16.6667 11.9048H21.4286ZM11.9048 2.38095C17.1646 2.38095 21.4286 6.6449 21.4286 11.9048H16.6667C16.6667 9.27483 14.5347 7.14286 11.9048 7.14286V2.38095ZM2.38095 11.9048C2.38095 6.6449 6.6449 2.38095 11.9048 2.38095V7.14286C9.27483 7.14286 7.14286 9.27483 7.14286 11.9048L2.38095 11.9048Z" fill="#5AC6D0"/>
</svg>
