<svg width="30" height="30" viewBox="0 0 30 30" fill="none" xmlns="http://www.w3.org/2000/svg">
<path fill-rule="evenodd" clip-rule="evenodd" d="M15 0C23.2843 0 30 6.71573 30 15C30 23.2843 23.2843 30 15 30C6.71573 30 0 23.2843 0 15C0 6.71573 6.71573 0 15 0ZM18.4968 11.0492C18.051 10.5873 17.437 10.425 16.7902 10.4327C15.9273 10.443 15.0058 10.7556 14.3467 11.0626C12.7695 11.7974 11.5593 13.0985 10.5514 14.4894C10.3699 14.7397 10.2751 15.0354 10.5945 15.2659C10.8668 15.4624 11.0629 15.2866 11.2271 15.1112L11.2379 15.0997C11.2504 15.0862 11.2628 15.0728 11.275 15.0596C11.4592 14.86 11.6374 14.6534 11.8155 14.4465L11.86 14.3948L11.9045 14.3431C12.4394 13.723 12.9835 13.1118 13.7037 12.6971C14.1318 12.4506 14.4403 12.8313 14.3742 13.259C14.3346 13.5155 14.1997 13.757 14.1054 14.005C13.7704 14.8857 13.4305 15.7645 13.092 16.6439C12.721 17.608 12.3512 18.5724 11.9915 19.5407L11.9603 19.6248L11.9291 19.7088C11.6117 20.5625 11.2991 21.4099 11.0923 22.3009C10.9271 23.0133 10.7046 23.8776 11.0242 24.5774C11.2083 24.9805 11.5988 25.2576 12.0331 25.3206C12.6255 25.4066 13.266 25.4165 13.8456 25.2846C14.1459 25.2163 14.4412 25.1272 14.7295 25.0189C15.6146 24.6861 16.4206 24.1728 17.1464 23.5696C17.8849 22.9542 18.5358 22.2263 19.1293 21.4713C19.3201 21.2286 19.5513 20.9603 19.6162 20.6495C19.6773 20.3579 19.4171 19.9416 19.0799 20.1108C18.9019 20.2002 18.7685 20.4212 18.6388 20.5682C18.476 20.7525 18.31 20.9341 18.1421 21.1138C17.8064 21.473 17.4622 21.8241 17.1166 22.1736C16.905 22.3876 16.6421 22.5684 16.3719 22.7012C16.0345 22.867 15.7659 22.6831 15.8024 22.3096C15.8359 21.9665 15.9198 21.6198 16.0375 21.2951C16.511 19.9877 16.9936 18.6836 17.4724 17.3781C17.7717 16.5623 18.0695 15.7459 18.363 14.9279C18.6373 14.1634 18.871 13.405 18.9698 12.5951C19.0379 12.0371 18.8932 11.46 18.4968 11.0492ZM19.4925 4.77577C18.0652 4.22048 16.3638 5.16814 16.0772 6.67822C15.8702 7.76859 16.2856 8.72869 17.1397 9.13377C18.7923 9.91751 20.7691 8.66573 20.7692 6.83558C20.7693 5.82 20.3222 5.09862 19.4925 4.77577Z" fill="#5AC6D0"/>
</svg>
