<svg width="191" height="53" viewBox="0 0 191 53" fill="none" xmlns="http://www.w3.org/2000/svg">
<path d="M73.6313 39.3874H68.3167V36.7233L66.8991 38.8835C65.9243 39.4757 64.8038 39.8018 63.3568 39.8018C60.1093 39.8018 58.1303 37.9676 57.7756 35.8062C57.657 35.008 57.6288 34.0898 57.6288 32.8171V23.5839H62.9434V31.634C62.9434 32.1367 62.9728 32.9949 63.0608 33.7943C63.2382 35.3035 63.9476 36.1912 65.6295 36.1912C67.3125 36.1912 68.3167 34.6231 68.3167 32.5217V23.5839H73.6313V39.3874Z" fill="#5AC6D0"/>
<path d="M92.8248 30.4485V39.3862H87.5103V31.3362C87.5103 30.8335 87.5103 29.9753 87.4515 29.1759C87.3329 27.6667 86.5061 26.7778 84.9123 26.7778C83.288 26.7778 82.137 28.3459 82.137 31.9283V39.3862H76.8224V23.5828H82.137V26.0397L83.5546 24.0866C84.5282 23.4945 85.6499 23.1684 87.0968 23.1684C90.3443 23.1684 92.2646 24.7082 92.6769 27.4606C92.7943 28.26 92.8248 29.1771 92.8248 30.4485Z" fill="#5AC6D0"/>
<path d="M107.854 31.3962C107.854 28.4378 106.377 26.779 104.518 26.779C102.568 26.779 101.152 27.9633 101.152 31.2785V31.9589C101.152 35.1246 102.775 36.1912 104.37 36.1912C106.437 36.1912 107.854 34.6219 107.854 31.3962ZM113.287 31.1301C113.287 36.7539 109.862 39.8018 105.817 39.8018C104.518 39.8018 102.983 39.5063 102.186 39.0319L101.152 37.3449V45.1877H95.8362V23.5828H101.152V25.8902L102.332 24.1443C103.218 23.4933 104.754 23.1672 106.349 23.1672C110.63 23.1684 113.287 26.4541 113.287 31.1301Z" fill="#5AC6D0"/>
<path d="M131.299 39.3874H125.984V36.7233L124.568 38.8835C123.593 39.4757 122.471 39.8018 121.024 39.8018C117.777 39.8018 115.798 37.9676 115.444 35.8062C115.326 35.008 115.296 34.0898 115.296 32.8171V23.5839H120.611V31.634C120.611 32.1367 120.64 32.9949 120.73 33.7943C120.907 35.3035 121.615 36.1912 123.298 36.1912C124.98 36.1912 125.984 34.6231 125.984 32.5217V23.5839H131.299V39.3874Z" fill="#5AC6D0"/>
<path d="M147.569 39.3874H133.898V36.2795L141.87 27.0168H134.342V23.7005H147.48V26.9568L139.597 36.0723H147.569V39.3874Z" fill="#5AC6D0"/>
<path d="M163.101 39.3874H149.43V36.2795L157.402 27.0168H149.872V23.7005H163.011V26.9568L155.128 36.0723H163.101V39.3874Z" fill="#5AC6D0"/>
<path d="M170.748 33.7048C170.748 34.4441 170.748 34.7702 170.808 35.1552C170.896 35.7768 171.161 35.984 172.549 35.9251V39.5369C171.575 39.6252 170.629 39.6841 169.449 39.6841C166.998 39.6841 165.611 38.707 165.493 36.6056C165.433 35.7779 165.433 34.9786 165.433 33.7943V17.6341H170.748V33.7048Z" fill="#5AC6D0"/>
<path d="M179.104 29.5609H184.449C184.155 27.6961 183.238 26.779 181.822 26.779C180.434 26.779 179.459 27.6078 179.104 29.5609ZM189.911 32.8171H178.927C179.192 35.4518 180.345 36.1912 181.85 36.1912C183.356 36.1912 184.271 35.4212 184.478 34.2087H189.704C188.789 37.7899 185.836 39.8018 181.791 39.8018C177.274 39.8018 173.672 37.1094 173.672 31.5445C173.672 26.9273 176.83 23.1684 182.087 23.1684C187.343 23.1684 190.001 27.1934 190.001 31.2785C190 31.7517 189.971 32.285 189.911 32.8171Z" fill="#5AC6D0"/>
<path d="M7.929 3.97323C7.929 6.16764 6.15434 7.94647 3.96509 7.94647C1.77466 7.94647 0 6.16764 0 3.97323C0 1.77883 1.77466 0 3.96509 0C6.15317 0 7.929 1.77883 7.929 3.97323Z" fill="#F36C44"/>
<path d="M41.5559 42.1045C40.9287 42.1045 40.3286 42.2175 39.7671 42.4141L38.3636 42.8073C37.8057 42.9639 37.2443 43.0428 36.6923 43.0428C36.6219 43.0428 36.5526 43.0369 36.4821 43.0345C36.4598 43.0357 36.4386 43.0381 36.4175 43.0381C32.9046 43.0381 30.0576 40.1844 30.0576 36.6632C30.0576 33.2975 32.6615 30.5486 35.9594 30.312L36.0933 30.2825C36.1344 30.2837 36.1755 30.2872 36.2178 30.2872C41.5712 30.2872 45.9262 25.922 45.9262 20.556C45.9262 15.1889 41.5712 10.8237 36.2178 10.8237C34.3774 10.8237 32.6532 11.3405 31.1851 12.2364L29.2273 13.2712C28.3252 13.748 27.3516 13.9893 26.3345 13.9893C24.1311 13.9893 22.0687 12.7944 20.9518 10.8719L20.1743 9.53223C20.1073 9.40391 20.0345 9.28147 19.9582 9.16022L19.9382 9.1249V9.12608C18.9728 7.60977 17.2827 6.59969 15.3588 6.59969C12.3627 6.59969 9.92447 9.04249 9.92447 12.0468C9.92447 15.0512 12.3627 17.4952 15.3588 17.4952C15.986 17.4952 16.5862 17.3833 17.1476 17.1856L18.1929 16.8924C18.5194 16.7829 18.8565 16.7041 19.2018 16.6487C19.2934 16.6334 19.3862 16.6193 19.479 16.6064C19.5248 16.6016 19.5706 16.5958 19.6187 16.5922C19.8207 16.571 20.0216 16.5569 20.2224 16.5569C21.081 16.5569 21.9066 16.7335 22.6618 17.0561C22.7018 17.0737 22.7394 17.0937 22.7793 17.1114C22.8944 17.1632 23.0083 17.2173 23.1199 17.2762C23.2279 17.3327 23.3325 17.3916 23.437 17.454C23.4593 17.4681 23.4816 17.4811 23.504 17.4952C25.0437 18.4358 26.1513 20.011 26.466 21.8616L26.5036 21.977L26.4989 22.0829C26.5365 22.3631 26.5623 22.6468 26.5623 22.9365C26.5623 26.4447 23.7353 29.2901 20.24 29.3089L20.2036 29.3172L20.2577 29.3219C15.1075 29.5538 10.9886 33.8249 10.9886 39.0425C10.9886 44.4096 15.3436 48.7748 20.6981 48.7748C22.5385 48.7748 24.2615 48.258 25.7296 47.3621L27.6875 46.3273C28.5895 45.8505 29.5632 45.6092 30.5803 45.6092C32.7848 45.6092 34.8472 46.8041 35.963 48.7266L36.7405 50.0663C36.8074 50.1946 36.8802 50.317 36.9566 50.4383L36.9766 50.4736V50.4713C37.942 51.9876 39.6321 52.9976 41.5559 52.9976C44.5532 52.9976 46.9915 50.5548 46.9915 47.5505C46.9915 44.5461 44.5532 42.1045 41.5559 42.1045Z" fill="#F36C44"/>
</svg>
